Coordinates
version=1
nRows=16
nColumns=42
inDegrees=yes

Units are S.I. units (second, meters, Newtons, ...)
If the header above contains a line with 'inDegrees', this indicates whether rotational values are in degrees (yes) or radians (no).

endheader
time	pelvis_tilt	pelvis_list	pelvis_rotation	pelvis_tx	pelvis_ty	pelvis_tz	hip_flexion_r	hip_adduction_r	hip_rotation_r	knee_angle_r	knee_adduction_r	knee_angle_r_beta	ankle_angle_r	subtalar_angle_r	mtp_angle_r	hip_flexion_l	hip_adduction_l	hip_rotation_l	knee_angle_l	knee_adduction_l	knee_angle_l_beta	ankle_angle_l	subtalar_angle_l	mtp_angle_l	lumbar_extension	lumbar_bending	lumbar_rotation	arm_flex_r	arm_add_r	arm_rot_r	elbow_flex_r	pro_sup_r	wrist_flex_r	wrist_dev_r	arm_flex_l	arm_add_l	arm_rot_l	elbow_flex_l	pro_sup_l	wrist_flex_l	wrist_dev_l
      0.97000000	     -7.78279040	      2.06274336	      0.61364516	     -0.67764387	      0.93082114	     -0.08857043	     -4.63027735	      0.31009063	     -4.98137316	     34.97646256	     -2.95391016	      0.61045443	      5.35456683	     -5.61139130	     -7.63598990	     31.15249756	      5.67989911	      7.19702240	     24.48315337	     -0.60654493	      0.42731164	      4.44364914	     -8.26828553	     -7.63598990	     -1.44405832	     -7.83152458	      4.34414478	     -1.09026053	    -12.01501974	     -2.15645934	     28.33317605	     90.00000001	      0.00000000	      0.00000000	    -12.89943665	    -12.31821252	    -11.89425485	     20.55770687	     90.00000001	      0.00000000	      0.00000000
      0.98000000	     -7.96718155	      2.11390669	      0.66811568	     -0.66579434	      0.93315394	     -0.08965549	     -2.52651835	     -0.14186331	     -5.18767676	     38.88395963	     -2.92939498	      0.67865312	      4.43491033	     -7.38615349	     -7.63320933	     30.27127332	      5.93152254	      6.69530326	     24.00570097	     -1.04299967	      0.41897852	      5.23078568	     -7.22285023	     -7.63320933	     -1.21752761	     -7.87915792	      4.18752407	     -1.61453348	    -11.72776540	     -1.79485105	     27.55128427	     90.00000001	      0.00000000	      0.00000000	    -12.45996335	    -12.34998398	    -11.57323293	     21.09131528	     90.00000001	      0.00000000	      0.00000000
      0.99000000	     -8.24921859	      2.02007294	      0.65000857	     -0.65427058	      0.93535248	     -0.09051509	     -0.23324573	     -0.37468977	     -5.08753576	     42.67688838	     -2.86470205	      0.74485222	      3.83668001	     -9.57956670	     -7.62762489	     29.59994389	      5.90887287	      6.14949700	     23.68558133	     -1.30927746	      0.41339138	      5.99702638	     -6.29364667	     -7.62762489	     -0.86799253	     -7.74828625	      4.07061518	     -2.15405491	    -11.46114420	     -1.45202836	     26.87259978	     90.00000001	      0.00000000	      0.00000000	    -12.08575572	    -12.41665260	    -10.82790802	     21.76112465	     90.00000001	      0.00000000	      0.00000000
      1.00000000	     -8.09580194	      1.95073861	      0.81934280	     -0.64235536	      0.93819404	     -0.09157806	      1.40877147	     -0.61117912	     -5.63626734	     45.86311812	     -3.14446664	      0.80046242	      3.46229919	    -11.03437158	     -7.62451708	     28.15721223	      6.03840295	      6.11974025	     22.87690605	     -1.57590207	      0.39927733	      6.70502179	     -5.50683027	     -7.62451708	     -1.01612787	     -7.63526402	      3.69818766	     -2.60723443	    -11.19248801	     -1.14654530	     26.16382875	     90.00000001	      0.00000000	      0.00000000	    -11.57542765	    -12.47797315	    -10.44142306	     22.30606062	     90.00000001	      0.00000000	      0.00000000
      1.01000000	     -8.08175696	      1.86720690	      1.00314450	     -0.63068877	      0.94089161	     -0.09254166	      3.23145854	     -0.87894247	     -5.99518800	     48.83907785	     -3.20890273	      0.85240271	      3.29354884	    -12.74013155	     -7.62129113	     26.88267465	      6.14113679	      6.18413714	     22.05367051	     -1.81674006	      0.38490916	      7.23498834	     -4.86924226	     -7.62129113	     -1.01654359	     -7.51497568	      3.33960098	     -3.10037461	    -10.86417304	     -0.86848517	     25.53583698	     90.00000001	      0.00000000	      0.00000000	    -11.04440012	    -12.57874262	     -9.87618027	     22.94542674	     90.00000001	      0.00000000	      0.00000000
      1.02000000	     -7.90974218	      1.67445141	      1.20346140	     -0.61896061	      0.94375459	     -0.09354161	      4.80831936	     -0.98697809	     -6.44218022	     51.37162369	     -3.38449132	      0.89660398	      3.45570014	    -14.04690535	     -7.61889142	     25.40109460	      6.05764362	      6.38840864	     21.19227718	     -1.88428897	      0.36987501	      7.77963003	     -4.39117953	     -7.61889142	     -1.17016860	     -7.22812726	      2.91211459	     -3.56458969	    -10.60109833	     -0.68046657	     24.98302446	     90.00000001	      0.00000000	      0.00000000	    -10.46077050	    -12.62787162	     -9.35350787	     23.48841131	     90.00000001	      0.00000000	      0.00000000
      1.03000000	     -7.92424821	      1.50596738	      1.48901513	     -0.60763792	      0.94636667	     -0.09471542	      6.60884493	     -1.24462623	     -6.45073217	     53.68436126	     -2.98945417	      0.93696886	      3.39269333	    -15.57776718	     -7.61323673	     24.12320991	      6.11192679	      6.85707114	     20.27744044	     -2.07715609	      0.35390810	      7.87418436	     -4.32485551	     -7.61323673	     -1.15896669	     -6.95944732	      2.43356440	     -4.06933484	    -10.31744924	     -0.66218949	     24.51683052	     90.00000001	      0.00000000	      0.00000000	    -10.01131437	    -12.85085792	     -8.00053521	     24.37236955	     90.00000001	      0.00000000	      0.00000000
      1.04000000	     -7.59074986	      0.99977110	      1.81903191	     -0.59612383	      0.94937047	     -0.09592012	      7.84033185	     -1.06105573	     -6.87980951	     55.24185698	     -2.89128357	      0.96415229	      3.84984027	    -15.53105228	     -7.61195872	     22.65660935	      5.69661883	      6.77098674	     19.73672100	     -2.22539463	      0.34447077	      8.20563597	     -4.00343010	     -7.61195872	     -1.52911623	     -6.25719220	      1.83080305	     -4.54100993	    -10.17995316	     -0.63069076	     24.25897146	     90.00000001	      0.00000000	      0.00000000	     -9.26374692	    -12.77077016	     -7.78121740	     24.82544243	     90.00000001	      0.00000000	      0.00000000
      1.05000000	     -7.49413265	      0.87897124	      2.21045657	     -0.58459752	      0.95200723	     -0.09693434	      9.38201499	     -1.31107689	     -7.22266136	     56.70457032	     -2.77532036	      0.98968145	      4.18998938	    -16.28015922	     -7.60886142	     20.90615435	      5.77610336	      7.66114194	     18.13180815	     -2.41560734	      0.31645975	      8.60069588	     -3.20226697	     -7.60886142	     -1.59402055	     -6.06542934	      1.27505146	     -5.07669487	     -9.82624272	     -0.71003092	     23.82456672	     90.00000001	      0.00000000	      0.00000000	     -8.60876498	    -13.03040596	     -6.84289163	     25.43348462	     90.00000001	      0.00000000	      0.00000000
      1.06000000	     -7.33797075	      0.50417645	      2.53996333	     -0.57328211	      0.95456563	     -0.09793278	     10.79643299	     -1.24333038	     -7.38541549	     57.66813110	     -2.52552002	      1.00649876	      4.77051048	    -16.36042948	     -7.60652126	     19.37113872	      5.46078710	      7.94637599	     17.02025415	     -2.54201970	      0.29705947	      8.91709759	     -2.74475231	     -7.60652126	     -1.73972670	     -5.53894161	      0.73176319	     -5.61353949	     -9.61478774	     -0.86301876	     23.61625892	     90.00000001	      0.00000000	      0.00000000	     -7.88824415	    -13.14925923	     -6.13711812	     25.99505833	     90.00000001	      0.00000000	      0.00000000
      1.07000000	     -7.17967723	      0.15331944	      2.89476097	     -0.56222648	      0.95693249	     -0.09893136	     12.18460054	     -1.19677226	     -7.38730847	     58.31407612	     -2.11355788	      1.01777263	      5.26052625	    -16.25569543	     -7.60381008	     17.83258754	      5.20524144	      8.27843266	     15.85870525	     -2.76324073	      0.27678662	      9.12594427	     -2.20892620	     -7.60381008	     -1.92267872	     -5.03786463	      0.19968648	     -6.16065265	     -9.39432244	     -1.17256451	     23.50101258	     90.00000001	      0.00000000	      0.00000000	     -7.12526040	    -13.33831042	     -5.23326689	     26.66177212	     90.00000001	      0.00000000	      0.00000000
      1.08000000	     -7.13095039	     -0.24202943	      3.19210934	     -0.55136587	      0.95892285	     -0.09984909	     13.71376793	     -1.05618277	     -7.34500547	     58.67581373	     -1.77076452	      1.02408614	      5.86926741	    -16.06566454	     -7.60182678	     16.49069242	      4.85909294	      8.45736162	     14.80959037	     -2.96288044	      0.25847611	      9.41587010	     -1.66128878	     -7.60182678	     -1.98310300	     -4.47299821	     -0.28468469	     -6.72114121	     -9.21240130	     -1.44271901	     23.47864919	     90.00000001	      0.00000000	      0.00000000	     -6.32061330	    -13.47289152	     -4.58184839	     27.26734843	     90.00000001	      0.00000000	      0.00000000
      1.09000000	     -7.12587455	     -0.64255099	      3.51475066	     -0.54066038	      0.96053319	     -0.10101696	     15.27457628	     -0.95649175	     -7.31925433	     58.78606476	     -1.38372601	      1.02601038	      6.35468190	    -15.75466673	     -7.60041915	     15.33927163	      4.53762771	      8.37670465	     13.99546495	     -3.23214271	      0.24426694	      9.66282948	     -1.21844807	     -7.60041915	     -2.00280604	     -3.88151869	     -0.83735708	     -7.28160813	     -9.12903742	     -1.67915739	     23.50841749	     90.00000001	      0.00000000	      0.00000000	     -5.50911260	    -13.51004772	     -4.11075712	     27.84193970	     90.00000001	      0.00000000	      0.00000000
      1.10000000	     -7.24540318	     -0.96109309	      3.78473686	     -0.53008071	      0.96180946	     -0.10169347	     16.91535980	     -0.83322463	     -7.06276216	     58.52155103	     -0.96943543	      1.02139375	      6.94898908	    -15.61088296	     -7.59879716	     14.15537358	      4.25048390	      8.66589505	     12.82290216	     -3.45103144	      0.22380186	     10.01092376	     -0.45369421	     -7.59879716	     -1.89971352	     -3.45669790	     -1.24054233	     -7.91181219	     -8.91177407	     -2.07691963	     23.64330664	     90.00000001	      0.00000000	      0.00000000	     -4.64877242	    -13.72822785	     -3.40801869	     28.46994138	     90.00000001	      0.00000000	      0.00000000
      1.11000000	     -7.31024889	     -1.22875801	      4.07993777	     -0.51955785	      0.96282828	     -0.10248247	     18.44788383	     -0.77951699	     -6.79989556	     58.02781313	     -0.53174071	      1.01277640	      7.39627218	    -15.56804391	     -7.59710507	     12.97937907	      4.03719526	      8.83690664	     11.77807225	     -3.71555618	      0.20556614	     10.30104907	      0.24687799	     -7.59710507	     -1.86428369	     -3.07535439	     -1.66347218	     -8.53320839	     -8.70333414	     -2.57230205	     23.77514690	     90.00000001	      0.00000000	      0.00000000	     -3.77511811	    -13.97643024	     -2.59769681	     29.13638855	     90.00000001	      0.00000000	      0.00000000
      1.12000000	     -7.05691762	     -1.43377882	      4.35320515	     -0.50893573	      0.96400160	     -0.10310157	     19.51375216	     -0.74966678	     -6.49639164	     57.19832835	     -0.06798146	      0.99829916	      7.53560830	    -15.87052454	     -7.59242491	     11.38921485	      3.81807979	      8.94276971	     10.64100997	     -3.95546203	      0.18572066	     10.45649474	      0.93424644	     -7.59242491	     -2.22544834	     -2.75898830	     -1.96933033	     -9.01579872	     -8.35008134	     -3.74160163	     23.76588390	     90.00000001	      0.00000000	      0.00000000	     -2.94270686	    -14.52562495	     -0.71033137	     30.16504503	     90.00000001	      0.00000000	      0.00000000
